<svg xmlns="http://www.w3.org/2000/svg" version="1.1" xmlns:xlink="http://www.w3.org/1999/xlink" width="42.666668" height="42.666668"><svg xmlns:dc="http://purl.org/dc/elements/1.1/" xmlns:cc="http://creativecommons.org/ns#" xmlns:rdf="http://www.w3.org/1999/02/22-rdf-syntax-ns#" xmlns:svg="http://www.w3.org/2000/svg" xmlns="http://www.w3.org/2000/svg" viewBox="0 0 42.666668 42.666668" height="42.666668" width="42.666668" xml:space="preserve" id="SvgjsSvg1039" version="1.1"><metadata id="SvgjsMetadata1038"><rdf:rdf><cc:work rdf:about=""><dc:format>image/svg+xml</dc:format><dc:type rdf:resource="http://purl.org/dc/dcmitype/StillImage"></dc:type></cc:work></rdf:rdf></metadata><defs id="SvgjsDefs1037"><clipPath id="SvgjsClipPath1036" clipPathUnits="userSpaceOnUse"><path id="SvgjsPath1035" d="M 0,32 H 32 V 0 H 0 Z"></path></clipPath></defs><g transform="matrix(1.3333333,0,0,-1.3333333,0,42.666667)" id="SvgjsG1034"><g id="SvgjsG1033"><g clip-path="url(#clipPath18)" id="SvgjsG1032"><g transform="translate(16,1.6933)" id="SvgjsG1031"><path id="SvgjsPath1030" style="fill:#ffffff;fill-opacity:1;fill-rule:nonzero;stroke:none" d="m 0,0 c -6.257,0 -16.175,19.235 -11.128,25.156 2.199,2.579 5.723,3.457 11.128,3.457 5.405,0 8.929,-0.878 11.128,-3.457 C 16.175,19.235 6.257,0 0,0"></path></g><g transform="translate(16,4.4496)" id="SvgjsG1029"><path id="SvgjsPath1028" style="fill:#002d71;fill-opacity:1;fill-rule:nonzero;stroke:none" d="m 0,0 c -5.026,0 -12.994,15.529 -8.939,20.309 1.766,2.083 4.597,2.792 8.939,2.792 4.342,0 7.173,-0.709 8.939,-2.792 C 12.994,15.529 5.026,0 0,0"></path></g></g></g></g></svg><style>@media (prefers-color-scheme: light) { :root { filter: none; } }
@media (prefers-color-scheme: dark) { :root { filter: none; } }
</style></svg>